<svg width="408" height="274" viewBox="0 0 408 274" fill="none" xmlns="http://www.w3.org/2000/svg">
<path d="M218.688 118.412C213.703 115.042 207.729 113.48 201.746 113.981C195.763 114.482 190.127 117.017 185.763 121.169C181.398 125.322 178.565 130.845 177.727 136.833C176.889 142.822 178.097 148.919 181.152 154.125" stroke="#263238" stroke-width="0.969642" stroke-linecap="round" stroke-linejoin="round"/>
<path d="M228.099 129.722C227.583 128.555 226.987 127.425 226.315 126.341" stroke="#263238" stroke-width="0.969642" stroke-linecap="round" stroke-linejoin="round"/>
<path d="M225.841 155.424C227.815 152.466 229.181 149.141 229.861 145.644C230.541 142.148 230.521 138.549 229.802 135.06" stroke="#263238" stroke-width="0.969642" stroke-linecap="round" stroke-linejoin="round"/>
<path d="M177.622 114.05C175.822 115.869 174.209 117.866 172.807 120.012" stroke="#263238" stroke-width="0.969642" stroke-linecap="round" stroke-linejoin="round"/>
<path d="M233.278 163.43C238.605 156.495 241.345 147.896 241.022 139.134C240.698 130.371 237.332 122.001 231.509 115.484C225.686 108.966 217.777 104.714 209.161 103.469C200.545 102.225 191.768 104.067 184.362 108.674" stroke="#263238" stroke-width="0.969642" stroke-linecap="round" stroke-linejoin="round"/>
<path d="M174.45 163.43C170.776 158.639 168.306 153.024 167.253 147.064C166.2 141.104 166.593 134.976 168.401 129.202" stroke="#263238" stroke-width="0.969642" stroke-linecap="round" stroke-linejoin="round"/>
<path d="M162.803 172.894C165.115 175.868 167.737 178.584 170.626 180.993" stroke="#263238" stroke-width="0.969642" stroke-linecap="round" stroke-linejoin="round"/>
<path d="M233.409 97.1767C224.096 90.7523 212.966 87.5428 201.689 88.0295C190.412 88.5163 179.595 92.6731 170.862 99.8765C162.129 107.08 155.949 116.942 153.251 127.982C150.552 139.023 151.479 150.647 155.894 161.112" stroke="#263238" stroke-width="0.969642" stroke-linecap="round" stroke-linejoin="round"/>
<path d="M252.558 121.535C251.156 117.894 249.355 114.422 247.188 111.184" stroke="#263238" stroke-width="0.969642" stroke-linecap="round" stroke-linejoin="round"/>
<path d="M239.959 178.489C245.057 173.589 249.114 167.697 251.883 161.17C254.652 154.642 256.075 147.616 256.066 140.518" stroke="#263238" stroke-width="0.969642" stroke-linecap="round" stroke-linejoin="round"/>
<path d="M130.995 140.518C130.995 157.956 137.125 174.831 148.298 188.151C159.47 201.472 174.964 210.376 192.032 213.287" stroke="#263238" stroke-width="0.969642" stroke-linecap="round" stroke-linejoin="round"/>
<path d="M262.752 184.429C271.676 172.265 276.676 157.632 277.074 142.512C277.472 127.391 273.25 112.512 264.978 99.8885C256.706 87.2646 244.785 77.505 230.826 71.9301C216.868 66.3553 201.546 65.2344 186.935 68.7191" stroke="#263238" stroke-width="0.969642" stroke-linecap="round" stroke-linejoin="round"/>
<path d="M130.995 140.518C130.996 123.975 136.513 107.912 146.661 94.9063C156.809 81.9002 171 72.705 186.957 68.7959" stroke="#263238" stroke-width="0.969642" stroke-linecap="round" stroke-linejoin="round"/>
<path d="M247.188 200.02C249.049 198.643 250.838 197.181 252.558 195.636" stroke="#263238" stroke-width="0.969642" stroke-linecap="round" stroke-linejoin="round"/>
<path d="M216.083 213.287C224.413 211.882 232.438 209.026 239.796 204.848" stroke="#263238" stroke-width="0.969642" stroke-linecap="round" stroke-linejoin="round"/>
<path d="M203.897 206.678C196.478 206.669 189.365 203.697 184.119 198.412C178.873 193.128 175.922 185.963 175.913 178.489V168.998C175.913 168.591 176.074 168.2 176.359 167.913C176.645 167.625 177.032 167.463 177.436 167.463H181.244C181.648 167.463 182.036 167.625 182.321 167.913C182.607 168.2 182.768 168.591 182.768 168.998C182.768 169.405 182.607 169.795 182.321 170.083C182.036 170.37 181.648 170.532 181.244 170.532H178.976V178.489C178.976 185.151 181.603 191.541 186.28 196.252C190.956 200.963 197.299 203.609 203.913 203.609C210.527 203.609 216.869 200.963 221.546 196.252C226.223 191.541 228.85 185.151 228.85 178.489V170.532H226.565C226.161 170.532 225.774 170.37 225.488 170.083C225.202 169.795 225.042 169.405 225.042 168.998C225.042 168.591 225.202 168.2 225.488 167.913C225.774 167.625 226.161 167.463 226.565 167.463H230.373C230.777 167.463 231.164 167.625 231.45 167.913C231.736 168.2 231.896 168.591 231.896 168.998V178.489C231.888 185.965 228.934 193.133 223.685 198.418C218.435 203.703 211.318 206.674 203.897 206.678Z" fill="#263238"/>
<path d="M233.403 230.264V227.195C233.404 226.792 233.325 226.393 233.172 226.02C233.02 225.648 232.795 225.309 232.512 225.024C232.229 224.739 231.893 224.513 231.523 224.359C231.153 224.205 230.757 224.126 230.357 224.127H177.436C177.036 224.126 176.639 224.205 176.27 224.359C175.9 224.513 175.563 224.739 175.28 225.024C174.997 225.309 174.773 225.648 174.62 226.02C174.467 226.393 174.389 226.792 174.39 227.195V230.264H233.403Z" fill="#263238"/>
<path d="M206.867 227.864C206.917 227.645 206.943 227.42 206.943 227.195V205.144H200.85V227.195C200.85 227.42 200.876 227.645 200.926 227.864H206.867Z" fill="#263238"/>
<path d="M222.741 140.518C222.784 137.998 222.327 135.494 221.399 133.153C220.471 130.812 219.09 128.681 217.336 126.883C215.581 125.086 213.489 123.658 211.182 122.684C208.874 121.709 206.396 121.207 203.894 121.207C201.392 121.207 198.915 121.709 196.607 122.684C194.299 123.658 192.207 125.086 190.453 126.883C188.698 128.681 187.317 130.812 186.389 133.153C185.461 135.494 185.005 137.998 185.047 140.518V178.489C185.131 183.468 187.154 188.215 190.679 191.707C194.205 195.198 198.95 197.155 203.894 197.155C208.838 197.155 213.584 195.198 217.109 191.707C220.635 188.215 222.657 183.468 222.741 178.489V140.518Z" stroke="#263238" stroke-width="0.969642" stroke-linecap="round" stroke-linejoin="round"/>
<path d="M222.741 140.518C222.784 137.998 222.327 135.494 221.399 133.153C220.471 130.812 219.09 128.681 217.336 126.883C215.581 125.086 213.489 123.658 211.182 122.684C208.874 121.709 206.396 121.207 203.894 121.207C201.392 121.207 198.915 121.709 196.607 122.684C194.299 123.658 192.207 125.086 190.453 126.883C188.698 128.681 187.317 130.812 186.389 133.153C185.461 135.494 185.005 137.998 185.047 140.518V178.489C185.131 183.468 187.154 188.215 190.679 191.707C194.205 195.198 198.95 197.155 203.894 197.155C208.838 197.155 213.584 195.198 217.109 191.707C220.635 188.215 222.657 183.468 222.741 178.489V140.518Z" fill="#E8E8E8"/>
<path d="M196.09 142.518H185.047V147.122H196.09C196.696 147.122 197.277 146.879 197.706 146.447C198.134 146.016 198.375 145.43 198.375 144.82C198.375 144.209 198.134 143.624 197.706 143.192C197.277 142.761 196.696 142.518 196.09 142.518Z" fill="white"/>
<path d="M222.741 142.518H211.704C211.098 142.518 210.516 142.761 210.088 143.192C209.659 143.624 209.419 144.209 209.419 144.82C209.419 145.43 209.659 146.016 210.088 146.447C210.516 146.879 211.098 147.122 211.704 147.122H222.741V142.518Z" fill="white"/>
<path d="M203.897 142.518C203.445 142.518 203.003 142.653 202.627 142.906C202.252 143.159 201.959 143.519 201.786 143.939C201.613 144.36 201.568 144.822 201.656 145.269C201.744 145.715 201.962 146.125 202.281 146.447C202.601 146.769 203.008 146.988 203.451 147.077C203.894 147.166 204.354 147.121 204.771 146.946C205.189 146.772 205.546 146.477 205.797 146.099C206.048 145.72 206.182 145.275 206.182 144.82C206.182 144.209 205.941 143.624 205.512 143.192C205.084 142.761 204.503 142.518 203.897 142.518Z" fill="white"/>
<path d="M203.897 151.823C203.445 151.823 203.003 151.958 202.627 152.211C202.252 152.464 201.959 152.824 201.786 153.244C201.613 153.665 201.568 154.128 201.656 154.574C201.744 155.02 201.962 155.431 202.281 155.752C202.601 156.074 203.008 156.294 203.451 156.382C203.894 156.471 204.354 156.426 204.771 156.251C205.189 156.077 205.546 155.782 205.797 155.404C206.048 155.025 206.182 154.58 206.182 154.125C206.182 153.515 205.941 152.929 205.512 152.497C205.084 152.066 204.503 151.823 203.897 151.823Z" fill="white"/>
<path d="M203.897 161.112C203.445 161.112 203.003 161.247 202.627 161.5C202.252 161.753 201.959 162.112 201.786 162.533C201.613 162.953 201.568 163.416 201.656 163.863C201.744 164.309 201.962 164.719 202.281 165.041C202.601 165.363 203.008 165.582 203.451 165.671C203.894 165.76 204.354 165.714 204.771 165.54C205.189 165.366 205.546 165.071 205.797 164.692C206.048 164.314 206.182 163.869 206.182 163.414C206.182 162.803 205.941 162.218 205.512 161.786C205.084 161.354 204.503 161.112 203.897 161.112Z" fill="white"/>
<path d="M196.09 151.823H185.047V156.427H196.09C196.696 156.427 197.277 156.184 197.706 155.752C198.134 155.321 198.375 154.735 198.375 154.125C198.375 153.515 198.134 152.929 197.706 152.497C197.277 152.066 196.696 151.823 196.09 151.823Z" fill="white"/>
<path d="M222.741 151.823H211.704C211.098 151.823 210.516 152.066 210.088 152.497C209.659 152.929 209.419 153.515 209.419 154.125C209.419 154.735 209.659 155.321 210.088 155.752C210.516 156.184 211.098 156.427 211.704 156.427H222.741V151.823Z" fill="white"/>
<path d="M196.09 161.112H185.047V165.715H196.09C196.696 165.715 197.277 165.473 197.706 165.041C198.134 164.609 198.375 164.024 198.375 163.414C198.375 162.803 198.134 162.218 197.706 161.786C197.277 161.354 196.696 161.112 196.09 161.112V161.112Z" fill="white"/>
<path d="M222.741 161.112H211.704C211.098 161.112 210.516 161.354 210.088 161.786C209.659 162.218 209.419 162.803 209.419 163.414C209.419 164.024 209.659 164.609 210.088 165.041C210.516 165.473 211.098 165.715 211.704 165.715H222.741V161.112Z" fill="white"/>
<path d="M222.741 140.518C222.784 137.998 222.327 135.494 221.399 133.153C220.471 130.812 219.09 128.681 217.336 126.883C215.581 125.086 213.489 123.658 211.182 122.684C208.874 121.709 206.396 121.207 203.894 121.207C201.392 121.207 198.915 121.709 196.607 122.684C194.299 123.658 192.207 125.086 190.453 126.883C188.698 128.681 187.317 130.812 186.389 133.153C185.461 135.494 185.005 137.998 185.047 140.518V178.489C185.131 183.468 187.154 188.215 190.679 191.707C194.205 195.198 198.95 197.155 203.894 197.155C208.838 197.155 213.584 195.198 217.109 191.707C220.635 188.215 222.657 183.468 222.741 178.489V140.518Z" stroke="#263238" stroke-width="0.969642" stroke-miterlimit="10"/>
<path d="M185.047 178.489C185.131 183.468 187.154 188.215 190.679 191.707C194.204 195.198 198.95 197.155 203.894 197.155C208.838 197.155 213.584 195.198 217.109 191.707C220.634 188.215 222.657 183.468 222.741 178.489H185.047Z" fill="#263238" stroke="#263238" stroke-width="0.969642" stroke-miterlimit="10"/>
<path d="M363.761 168.925C387.296 145.218 387.296 106.78 363.761 83.072C340.227 59.3643 302.069 59.3643 278.535 83.072C255 106.78 255 145.218 278.535 168.925C302.069 192.633 340.227 192.633 363.761 168.925Z" fill="#E8E8E8"/>
<path d="M312.506 100.881H270.406C268.285 100.881 266.565 102.614 266.565 104.75V147.16C266.565 149.297 268.285 151.029 270.406 151.029H312.506C314.627 151.029 316.347 149.297 316.347 147.16V104.75C316.347 102.614 314.627 100.881 312.506 100.881Z" fill="white"/>
<g opacity="0.1">
<path opacity="0.1" d="M271.26 151.034H287.874L298.46 100.881H281.172L270.602 150.98C270.82 151.014 271.04 151.033 271.26 151.034V151.034Z" fill="black"/>
<path opacity="0.1" d="M305.5 100.881H301.344L290.763 151.034H294.919L305.5 100.881Z" fill="black"/>
</g>
<path d="M311.652 152.284H271.26C269.688 152.281 268.182 151.652 267.07 150.533C265.958 149.415 265.33 147.899 265.325 146.316V105.611C265.328 104.026 265.954 102.507 267.066 101.386C268.179 100.266 269.687 99.6349 271.26 99.632H311.652C313.226 99.6334 314.735 100.264 315.849 101.384C316.962 102.505 317.589 104.025 317.592 105.611V146.316C317.587 147.9 316.958 149.417 315.845 150.535C314.732 151.654 313.224 152.282 311.652 152.284ZM271.26 102.136C270.345 102.136 269.467 102.502 268.819 103.154C268.171 103.805 267.807 104.689 267.805 105.611V146.316C267.805 147.239 268.169 148.125 268.817 148.779C269.464 149.432 270.343 149.8 271.26 149.801H311.652C312.106 149.801 312.556 149.711 312.975 149.536C313.394 149.361 313.776 149.104 314.096 148.78C314.417 148.457 314.672 148.072 314.845 147.649C315.018 147.227 315.107 146.774 315.106 146.316V105.611C315.106 105.154 315.017 104.702 314.843 104.28C314.67 103.858 314.415 103.475 314.094 103.152C313.773 102.829 313.392 102.573 312.973 102.399C312.554 102.225 312.105 102.136 311.652 102.136H271.26Z" fill="white" stroke="#263238" stroke-width="0.932567" stroke-miterlimit="10"/>
<path d="M371.057 100.881H328.957C326.836 100.881 325.116 102.614 325.116 104.75V147.16C325.116 149.297 326.836 151.029 328.957 151.029H371.057C373.178 151.029 374.898 149.297 374.898 147.16V104.75C374.898 102.614 373.178 100.881 371.057 100.881Z" fill="white"/>
<g opacity="0.1">
<path opacity="0.1" d="M334.157 151.034H350.771L361.352 100.881H344.069L333.472 150.98C333.698 151.015 333.928 151.034 334.157 151.034V151.034Z" fill="black"/>
<path opacity="0.1" d="M368.396 100.881H364.24L353.654 151.034H357.815L368.396 100.881Z" fill="black"/>
</g>
<path d="M370.203 152.284H329.811C328.24 152.281 326.733 151.652 325.621 150.533C324.509 149.415 323.882 147.899 323.876 146.316V105.611C323.879 104.026 324.505 102.507 325.617 101.386C326.73 100.266 328.238 99.6349 329.811 99.632H370.203C371.777 99.6334 373.287 100.264 374.4 101.384C375.514 102.505 376.141 104.025 376.144 105.611V146.316C376.138 147.9 375.51 149.417 374.396 150.535C373.283 151.654 371.775 152.282 370.203 152.284ZM329.811 102.136C328.896 102.136 328.018 102.502 327.37 103.154C326.723 103.805 326.358 104.689 326.357 105.611V146.316C326.357 147.239 326.72 148.125 327.368 148.779C328.016 149.432 328.894 149.8 329.811 149.801H370.203C370.657 149.801 371.107 149.711 371.526 149.536C371.946 149.361 372.327 149.104 372.648 148.78C372.968 148.457 373.223 148.072 373.396 147.649C373.569 147.227 373.658 146.774 373.657 146.316V105.611C373.657 105.154 373.568 104.702 373.394 104.28C373.221 103.858 372.966 103.475 372.645 103.152C372.325 102.829 371.944 102.573 371.525 102.399C371.105 102.225 370.656 102.136 370.203 102.136H329.811Z" fill="white" stroke="#263238" stroke-width="0.932567" stroke-miterlimit="10"/>
<path d="M322.777 243.022C337.748 243.022 349.884 241.223 349.884 239.005C349.884 236.786 337.748 234.988 322.777 234.988C307.806 234.988 295.669 236.786 295.669 239.005C295.669 241.223 307.806 243.022 322.777 243.022Z" fill="#E8E8E8"/>
<path d="M334.756 215.605C334.756 215.605 334.685 226.856 333.505 228.708C332.096 230.9 331.095 233.963 334.827 234.796C338.558 235.629 340.778 239.777 345.222 240.051C349.667 240.325 350.118 238.407 348.182 236.867C346.245 235.328 341.327 231.059 340.68 228.982C340.033 226.905 341.289 215.605 341.289 215.605H334.756Z" fill="white"/>
<path opacity="0.1" d="M340.696 222.137C340.936 218.822 341.289 215.605 341.289 215.605H334.761C334.761 215.605 334.761 218.482 334.571 221.567C336.593 221.928 338.642 222.119 340.696 222.137Z" fill="black"/>
<path d="M334.756 215.605C334.756 215.605 334.685 226.856 333.505 228.708C332.096 230.9 331.095 233.963 334.827 234.796C338.558 235.629 340.778 239.777 345.222 240.051C349.667 240.325 350.118 238.407 348.182 236.867C346.245 235.328 341.327 231.059 340.68 228.982C340.033 226.905 341.289 215.605 341.289 215.605H334.756Z" stroke="#263238" stroke-width="0.932567" stroke-linecap="round" stroke-linejoin="round"/>
<path d="M348.16 236.867C346.346 235.419 344.623 233.858 343.003 232.193C341.453 233.377 336.91 232.259 335.572 231.196C333.94 229.902 334.283 229.239 333.51 228.658L333.483 228.708C332.074 230.9 331.073 233.963 334.805 234.796C338.537 235.629 340.756 239.777 345.201 240.051C349.645 240.325 350.108 238.38 348.16 236.867Z" fill="#BFBFBF" stroke="#263238" stroke-width="0.932567" stroke-miterlimit="10"/>
<path d="M309.661 211.528C309.661 211.528 304.765 221.82 302.916 223.074C300.68 224.576 298.46 226.993 301.523 229.146C304.586 231.3 304.858 235.936 308.812 237.848C312.767 239.761 314.002 238.144 312.887 236.035C311.772 233.925 309.079 228.149 309.378 226.001C309.677 223.853 315.7 213.72 315.7 213.72L309.661 211.528Z" fill="white"/>
<path opacity="0.1" d="M309.661 211.528C309.661 211.528 307.91 215.222 306.109 218.449C307.563 219.901 309.237 221.109 311.07 222.028C312.947 218.367 315.7 213.737 315.7 213.737L309.661 211.528Z" fill="black"/>
<path d="M309.661 211.528C309.661 211.528 304.765 221.82 302.916 223.074C300.68 224.576 298.46 226.993 301.523 229.146C304.586 231.3 304.858 235.936 308.812 237.848C312.767 239.761 314.002 238.144 312.887 236.035C311.772 233.925 309.079 228.149 309.378 226.001C309.677 223.853 315.7 213.72 315.7 213.72L309.661 211.528Z" stroke="#263238" stroke-width="0.932567" stroke-linecap="round" stroke-linejoin="round"/>
<path d="M312.887 236.007C311.844 233.999 310.936 231.923 310.167 229.793C308.236 230.302 304.221 227.699 303.78 226.11C302.926 223.047 303.432 223.836 302.97 223.014L302.926 223.047C300.69 224.548 298.471 226.965 301.534 229.119C304.596 231.272 304.868 235.908 308.823 237.821C312.778 239.734 314.002 238.117 312.887 236.007Z" fill="#BFBFBF" stroke="#263238" stroke-width="0.932567" stroke-miterlimit="10"/>
<path d="M335.545 138.704C335.545 138.704 343.036 174.872 343.536 186.671C344.037 198.469 342.089 219.512 342.089 219.512L333.772 218.964C333.772 218.964 333.717 212.745 332.885 204.086C332.39 198.94 330.834 192.934 331.008 186.862C331.008 186.862 323.104 163.249 323.392 152.886C323.68 142.524 323.392 139.543 323.392 139.543L335.545 138.704Z" fill="#263238" stroke="#263238" stroke-width="0.932567" stroke-linecap="round" stroke-linejoin="round"/>
<path d="M315.52 138.704C315.52 138.704 307.752 145.171 312.256 158.208C314.03 163.381 320.873 187.043 320.873 187.043C318.993 189.209 317.402 191.613 316.14 194.195C313.018 200.409 310.744 210.087 306.892 215.638L312.593 219.512C312.593 219.512 331.002 196.266 332.177 188.885C333.352 181.503 327.825 151.988 327.825 151.988L326.057 139.992L315.52 138.704Z" fill="#263238" stroke="#263238" stroke-width="0.932567" stroke-linecap="round" stroke-linejoin="round"/>
<path d="M349.972 114.192C349.869 112.967 349.459 111.789 348.78 110.767C349.35 110.011 349.844 109.2 350.254 108.345C350.668 107.342 350.118 105.923 348.971 107.622C347.823 109.321 346.561 110.559 347.018 112.68C347.258 114.049 347.011 115.459 346.321 116.664L348.971 118.752L354.253 114.532L349.972 114.192Z" fill="white" stroke="#263238" stroke-width="0.932567" stroke-linecap="round" stroke-linejoin="round"/>
<path d="M352.46 103.352L348.019 104.569C347.61 104.68 347.369 105.105 347.48 105.517L350.011 114.893C350.122 115.304 350.543 115.547 350.952 115.435L355.393 114.219C355.802 114.107 356.043 113.683 355.932 113.271L353.401 103.895C353.29 103.483 352.869 103.24 352.46 103.352Z" fill="#263238" stroke="#263238" stroke-width="0.932567" stroke-linecap="round" stroke-linejoin="round"/>
<path d="M353.433 104.012L347.512 105.633L349.981 114.782L355.902 113.16L353.433 104.012Z" fill="#E8E8E8" stroke="#263238" stroke-width="0.932567" stroke-linecap="round" stroke-linejoin="round"/>
<path d="M352.245 107.178C352.173 106.896 351.993 106.654 351.744 106.506C351.495 106.358 351.198 106.316 350.918 106.389C350.638 106.461 350.398 106.643 350.251 106.894C350.104 107.145 350.062 107.444 350.135 107.726C350.205 108 350.559 109.288 350.679 109.743L352.789 109.167C352.67 108.745 352.311 107.408 352.245 107.178Z" fill="#263238"/>
<path d="M352.05 110.652C352.311 110.581 352.537 110.414 352.683 110.184C352.829 109.954 352.884 109.677 352.839 109.408L350.744 109.956C350.835 110.216 351.02 110.433 351.262 110.562C351.504 110.691 351.785 110.723 352.05 110.652Z" fill="#263238"/>
<path d="M354.019 111.792L352.648 112.17L352.365 111.129C352.755 110.976 353.075 110.683 353.264 110.307C353.453 109.931 353.497 109.497 353.388 109.09L353.235 108.542C353.233 108.531 353.228 108.52 353.221 108.51C353.214 108.5 353.205 108.492 353.195 108.486C353.185 108.48 353.174 108.476 353.162 108.474C353.15 108.472 353.138 108.473 353.127 108.477L352.898 108.537C352.886 108.54 352.875 108.545 352.866 108.553C352.856 108.561 352.849 108.57 352.843 108.581C352.837 108.592 352.834 108.604 352.833 108.616C352.832 108.628 352.834 108.64 352.838 108.652C352.841 108.664 352.846 108.675 352.853 108.684C352.86 108.694 352.868 108.702 352.879 108.709C352.889 108.715 352.9 108.719 352.912 108.72C352.924 108.722 352.936 108.721 352.947 108.718L353.083 108.679L353.208 109.145C353.26 109.338 353.274 109.54 353.249 109.739C353.224 109.937 353.16 110.129 353.061 110.303C352.962 110.477 352.831 110.629 352.673 110.751C352.516 110.874 352.337 110.964 352.145 111.017C351.953 111.069 351.753 111.083 351.556 111.058C351.358 111.032 351.168 110.968 350.996 110.868C350.823 110.769 350.672 110.636 350.55 110.478C350.428 110.319 350.339 110.138 350.287 109.945L350.156 109.479L350.292 109.447C350.315 109.439 350.335 109.423 350.347 109.402C350.359 109.38 350.363 109.355 350.358 109.331C350.354 109.32 350.349 109.308 350.342 109.299C350.334 109.289 350.325 109.281 350.314 109.275C350.304 109.268 350.292 109.265 350.28 109.263C350.268 109.261 350.255 109.262 350.243 109.266L350.02 109.326C350.009 109.329 349.997 109.335 349.988 109.342C349.978 109.35 349.97 109.359 349.964 109.37C349.958 109.381 349.954 109.392 349.952 109.405C349.951 109.417 349.952 109.429 349.955 109.441L350.107 109.989C350.218 110.396 350.473 110.747 350.824 110.975C351.176 111.204 351.598 111.294 352.011 111.228L352.289 112.269L350.918 112.641C350.894 112.648 350.872 112.659 350.853 112.674C350.833 112.689 350.817 112.708 350.805 112.729C350.793 112.75 350.785 112.774 350.782 112.799C350.779 112.823 350.781 112.848 350.787 112.872L350.836 113.052L354.296 112.104L354.247 111.924C354.241 111.9 354.23 111.877 354.215 111.858C354.2 111.838 354.182 111.822 354.16 111.81C354.139 111.797 354.116 111.79 354.091 111.787C354.067 111.784 354.042 111.785 354.019 111.792Z" fill="#263238"/>
<path d="M354.579 106.148C354.035 106.208 353.584 107.068 353.752 108.279C353.921 109.49 355.025 108.175 355.09 107.792C355.156 107.408 355.618 106.043 354.579 106.148Z" fill="white" stroke="#263238" stroke-width="0.932567" stroke-linecap="round" stroke-linejoin="round"/>
<path d="M355.776 107.956C355.631 107.954 355.487 107.984 355.356 108.046C355.224 108.107 355.108 108.197 355.015 108.31C354.923 108.422 354.857 108.554 354.822 108.696C354.787 108.838 354.784 108.986 354.813 109.129C354.916 110.307 355.145 110.033 355.145 110.033C355.15 110.518 355.248 110.998 355.433 111.447C355.705 111.967 356.423 111.178 356.423 110.707C356.423 110.236 356.347 107.759 355.776 107.956Z" fill="white" stroke="#263238" stroke-width="0.932567" stroke-linecap="round" stroke-linejoin="round"/>
<path d="M355.15 110.011C355.15 110.011 356.092 109.731 356.315 109.041L355.15 110.011Z" fill="white"/>
<path d="M355.15 110.011C355.15 110.011 356.092 109.731 356.315 109.041" stroke="#263238" stroke-width="0.932567" stroke-linecap="round" stroke-linejoin="round"/>
<path d="M346.974 114.992C347.157 114.234 347.171 113.445 347.018 112.68C346.561 110.559 347.817 109.315 348.971 107.622C350.124 105.928 350.668 107.342 350.254 108.345C349.844 109.2 349.35 110.011 348.78 110.767C349.516 111.759 349.931 112.955 349.972 114.192C349.972 114.592 349.972 115.787 349.972 115.787" fill="white"/>
<path d="M346.974 114.992C347.157 114.234 347.171 113.445 347.018 112.68C346.561 110.559 347.817 109.315 348.971 107.622C350.124 105.928 350.668 107.342 350.254 108.345C349.844 109.2 349.35 110.011 348.78 110.767C349.516 111.759 349.931 112.955 349.972 114.192C349.972 114.592 349.972 115.787 349.972 115.787" stroke="#263238" stroke-width="0.932567" stroke-linecap="round" stroke-linejoin="round"/>
<path d="M332.384 101.747C334.277 101.347 334.859 100.859 334.859 100.859C333.44 95.0999 338.531 75.7281 322.484 74.8348C306.436 73.9416 315.412 101.391 315.412 101.391L317.158 101.616L316.26 96.0972L318.349 101.753C324.529 102.427 328.489 102.301 330.981 101.983C330.643 99.4938 330.608 96.9726 330.877 94.4751C331.191 96.9349 331.695 99.3663 332.384 101.747V101.747Z" fill="#263238"/>
<path d="M322.478 75.1801C321.855 74.5567 321.041 74.1634 320.168 74.064C319.295 73.9645 318.415 74.1647 317.669 74.6321" stroke="#263238" stroke-width="0.932567" stroke-linecap="round" stroke-linejoin="round"/>
<path d="M334.701 105.259V105.084C334.669 105.161 334.636 105.215 334.701 105.259Z" fill="white" stroke="#263238" stroke-width="0.932567" stroke-linecap="round" stroke-linejoin="round"/>
<path d="M346.321 116.664L338.705 123.788L338.847 113.113C338.872 111.501 338.492 109.908 337.743 108.483C336.994 107.059 335.899 105.848 334.56 104.964L334.848 133.06C342.328 133.537 348.992 118.752 348.992 118.752C348.721 118.232 348.342 117.776 347.881 117.416C347.421 117.056 346.889 116.8 346.321 116.664V116.664Z" fill="white"/>
<path opacity="0.1" d="M337.536 129.613C336.404 129.717 336.148 127.536 336.165 125.415C335.848 126.213 335.638 127.05 335.539 127.903C335.441 130.32 335.441 132.715 335.479 134.764C343.998 130.873 344.102 127.405 346.289 123.865C344.896 125.646 339.717 129.41 337.536 129.613Z" fill="black"/>
<path d="M346.321 116.664L338.705 123.788L338.847 113.113C338.872 111.501 338.492 109.908 337.743 108.483C336.994 107.059 335.899 105.848 334.56 104.964L334.848 133.06C342.328 133.537 348.992 118.752 348.992 118.752C348.721 118.232 348.342 117.776 347.881 117.416C347.421 117.056 346.889 116.8 346.321 116.664V116.664Z" stroke="#263238" stroke-width="0.932567" stroke-linecap="round" stroke-linejoin="round"/>
<path d="M344.706 117.584L346.376 115.99L350.037 118.521L348.971 120.308L344.706 117.584Z" fill="#E8E8E8" stroke="#263238" stroke-width="0.932567" stroke-linecap="round" stroke-linejoin="round"/>
<path d="M337.568 118.368C334.5 132.068 336.024 141.072 336.024 141.072C336.024 141.072 328.62 146.36 313.056 141.877C313.056 141.877 315.885 134.792 315.123 129.388C314.661 126.062 311.56 114.105 311.56 114.105C311.56 114.105 310.091 108.877 310.766 104.657C312.066 103.808 314.851 102.783 319.774 102.421C319.856 102.144 319.912 101.86 319.943 101.572C320.099 100.178 320.134 98.7737 320.046 97.3741C319.976 95.7301 319.839 94.4204 319.839 94.4204H325.78C325.78 94.4204 325.856 95.9329 326.047 97.7084C326.15 98.7551 326.297 99.9004 326.482 100.887C326.574 101.381 326.692 101.869 326.835 102.35C332.765 103.249 334.995 104.805 335.425 106.159C337.443 112.263 338.221 115.442 337.568 118.368Z" fill="white" stroke="#263238" stroke-width="0.932567" stroke-linecap="round" stroke-linejoin="round"/>
<path d="M326.063 98.6729C325.578 99.7689 324.975 100.635 322.88 100.624C321.324 100.624 319.921 99.2374 319.763 98.7058C319.932 97.5057 319.763 97.0618 319.692 95.7028C321.693 95.6459 323.695 95.7632 325.676 96.0535C325.761 96.9327 325.89 97.807 326.063 98.6729Z" fill="#263238"/>
<path d="M330.012 86.9402C330.012 86.1292 330.012 85.6305 330.012 85.6305C329.571 83.5042 326.96 83.3947 325.758 83.4001C324.49 83.4414 323.227 83.2194 322.048 82.748C322.434 83.6784 323.073 84.4801 323.892 85.0606C319.42 84.0577 319.072 81.6794 319.241 80.3971C317.652 85.9922 315.59 86.2278 315.59 86.2278C315.59 86.2278 315.59 86.7265 315.683 87.532C315.149 87.6555 314.677 87.9691 314.354 88.4151C314.031 88.8612 313.879 89.4097 313.926 89.9597C313.92 90.5521 314.144 91.1234 314.551 91.5514C314.957 91.9795 315.514 92.2303 316.102 92.2503C316.219 92.2451 316.336 92.2285 316.45 92.201C317.396 95.9055 319.339 99.9333 323.315 99.7744C327.292 99.6154 328.913 95.4397 329.555 91.6694C329.673 91.6803 329.791 91.6803 329.909 91.6694C330.498 91.6098 331.04 91.3176 331.416 90.8565C331.792 90.3954 331.972 89.803 331.916 89.2089C331.918 88.6645 331.727 88.1372 331.379 87.7215C331.03 87.3057 330.545 87.0288 330.012 86.9402V86.9402Z" fill="white" stroke="#263238" stroke-width="0.932567" stroke-linecap="round" stroke-linejoin="round"/>
<path d="M322.048 93.2148L322.733 93.7135C322.82 93.7785 322.925 93.8135 323.032 93.8135C323.14 93.8135 323.245 93.7785 323.332 93.7135L323.963 93.2258" stroke="#263238" stroke-width="0.932567" stroke-linecap="round" stroke-linejoin="round"/>
<path d="M324.659 90.0966C324.659 90.0966 325.508 88.9678 327.2 89.7624" stroke="#263238" stroke-width="0.932567" stroke-linecap="round" stroke-linejoin="round"/>
<path d="M320.96 90.0966C320.96 90.0966 320.117 88.9678 318.419 89.7624" stroke="#263238" stroke-width="0.932567" stroke-linecap="round" stroke-linejoin="round"/>
<path d="M324.692 95.2041C324.22 95.5803 323.642 95.7963 323.041 95.8209C322.44 95.8455 321.847 95.6775 321.346 95.3411" stroke="#263238" stroke-width="0.932567" stroke-linecap="round" stroke-linejoin="round"/>
<path d="M331.878 190.085C331.684 190.686 331.459 191.277 331.204 191.855" stroke="white" stroke-width="0.932567" stroke-linecap="round" stroke-linejoin="round"/>
<path d="M323.936 150.152L325.709 151.752C327.292 153.179 328.333 155.117 328.653 157.232C330.17 166.959 332.607 176.96 332.308 187.526" stroke="white" stroke-width="0.932567" stroke-linecap="round" stroke-linejoin="round"/>
<path d="M330.649 150.437L327.836 154.487L328.19 153.988" stroke="white" stroke-width="0.932567" stroke-linecap="round" stroke-linejoin="round"/>
<path d="M319.535 134.189L320.34 135.022" stroke="#263238" stroke-width="0.932567" stroke-linecap="round" stroke-linejoin="round"/>
<path d="M313.708 122.708C314.555 126.204 316.062 129.503 318.147 132.424" stroke="#263238" stroke-width="0.932567" stroke-linecap="round" stroke-linejoin="round"/>
<path d="M313.865 85.6504L313.262 85.6748L313.348 87.8377L313.951 87.8133L313.865 85.6504Z" fill="white" stroke="#263238" stroke-width="0.932567" stroke-linecap="round" stroke-linejoin="round"/>
<path d="M332.28 84.8698L331.676 84.8943L331.763 87.0571L332.366 87.0326L332.28 84.8698Z" fill="white" stroke="#263238" stroke-width="0.932567" stroke-linecap="round" stroke-linejoin="round"/>
<path d="M322.391 75.8323C319.828 75.9372 317.406 77.0382 315.633 78.9042C313.86 80.7701 312.874 83.2557 312.881 85.8388C312.882 85.8872 312.892 85.935 312.912 85.9794C312.931 86.0237 312.959 86.0637 312.994 86.0969C313.029 86.1301 313.07 86.1559 313.116 86.1728C313.161 86.1896 313.209 86.1972 313.257 86.195H313.893C313.987 86.1907 314.075 86.15 314.139 86.0814C314.203 86.0129 314.237 85.9219 314.236 85.8278C314.251 83.6118 315.113 81.4868 316.642 79.8939C318.172 78.3011 320.252 77.3629 322.45 77.274C324.648 77.1852 326.796 77.9525 328.447 79.4168C330.098 80.881 331.126 82.9296 331.318 85.1373C331.323 85.2308 331.365 85.3184 331.434 85.381C331.504 85.4435 331.595 85.4761 331.687 85.4716H332.324C332.372 85.4703 332.419 85.4591 332.462 85.4389C332.506 85.4186 332.545 85.3897 332.577 85.3538C332.609 85.3179 332.633 85.2759 332.649 85.2302C332.664 85.1845 332.67 85.1361 332.667 85.088C332.484 82.5025 331.308 80.0904 329.39 78.3627C327.472 76.635 324.962 75.7274 322.391 75.8323Z" fill="#E8E8E8" stroke="#263238" stroke-width="0.932567" stroke-linecap="round" stroke-linejoin="round"/>
<path d="M314.976 86.9731H314.835C314.425 86.9901 314.022 87.0882 313.65 87.2619C313.277 87.4356 312.942 87.6815 312.664 87.9855C312.103 88.5996 311.806 89.4132 311.84 90.2474C311.874 91.0817 312.235 91.8682 312.845 92.4339C313.455 92.9997 314.262 93.2983 315.09 93.2642H315.226L314.976 86.9731Z" fill="#E8E8E8" stroke="#263238" stroke-width="0.932567" stroke-linecap="round" stroke-linejoin="round"/>
<path d="M315.819 90.0802C315.912 92.4147 316.075 93.9162 315.275 93.9655C314.476 94.0148 314.139 92.4914 314.046 90.1295C313.954 87.7676 314.166 86.2935 314.965 86.2387C315.765 86.1839 315.727 87.7457 315.819 90.0802Z" fill="white" stroke="#263238" stroke-width="0.932567" stroke-linecap="round" stroke-linejoin="round"/>
<path d="M330.697 86.3374H330.839C331.249 86.3208 331.658 86.3858 332.043 86.5286C332.428 86.6714 332.782 86.8892 333.083 87.1695C333.385 87.4499 333.629 87.7874 333.801 88.1627C333.973 88.538 334.07 88.9438 334.086 89.3568C334.103 89.7699 334.038 90.1822 333.897 90.5702C333.755 90.9582 333.539 91.3142 333.26 91.618C332.982 91.9218 332.647 92.1674 332.274 92.3407C331.902 92.5141 331.499 92.6119 331.089 92.6284H330.947L330.697 86.3374Z" fill="#E8E8E8" stroke="#263238" stroke-width="0.932567" stroke-linecap="round" stroke-linejoin="round"/>
<path d="M330.077 89.5049C330.17 91.8394 330.132 93.3409 330.931 93.3409C331.731 93.3409 331.943 91.7791 331.851 89.4446C331.758 87.1101 331.421 85.6086 330.627 85.636C329.832 85.6634 329.985 87.1704 330.077 89.5049Z" fill="white" stroke="#263238" stroke-width="0.932567" stroke-linecap="round" stroke-linejoin="round"/>
<path d="M317.244 88.0252C317.244 88.0252 319.317 86.299 321.281 87.8608" stroke="#263238" stroke-width="0.932567" stroke-linecap="round" stroke-linejoin="round"/>
<path d="M328.62 87.68C328.62 87.68 326.444 86.1292 324.583 87.8444" stroke="#263238" stroke-width="0.932567" stroke-linecap="round" stroke-linejoin="round"/>
<path d="M318.991 101.66C318.991 101.66 320.231 104.794 324.833 105.496C324.833 105.496 322.995 109.332 320.481 107.825C317.473 106.027 316.896 102.295 316.896 102.295L318.991 101.66Z" fill="#E8E8E8" stroke="#263238" stroke-width="0.932567" stroke-linecap="round" stroke-linejoin="round"/>
<path d="M327.423 102.049C327.44 102.883 327.165 103.697 326.645 104.347C326.126 104.998 325.396 105.443 324.583 105.605C324.583 105.605 326.819 109.299 328.652 107.249C330.486 105.2 329.06 102.41 329.06 102.41L327.423 102.049Z" fill="#E8E8E8" stroke="#263238" stroke-width="0.932567" stroke-linecap="round" stroke-linejoin="round"/>
<path d="M326.4 112.926C326.4 113.035 326.368 113.141 326.308 113.231C326.249 113.321 326.164 113.391 326.064 113.433C325.965 113.474 325.855 113.485 325.75 113.464C325.644 113.443 325.547 113.391 325.471 113.314C325.395 113.237 325.343 113.14 325.322 113.033C325.301 112.927 325.312 112.817 325.353 112.717C325.395 112.617 325.464 112.531 325.554 112.471C325.643 112.411 325.748 112.378 325.856 112.378C326 112.378 326.139 112.436 326.241 112.539C326.343 112.642 326.4 112.781 326.4 112.926Z" fill="#E8E8E8" stroke="#263238" stroke-width="0.932567" stroke-linecap="round" stroke-linejoin="round"/>
<path d="M327.14 123.716C327.14 123.825 327.108 123.931 327.048 124.021C326.988 124.111 326.903 124.181 326.804 124.223C326.705 124.264 326.595 124.275 326.49 124.254C326.384 124.233 326.287 124.181 326.211 124.104C326.135 124.027 326.083 123.93 326.062 123.823C326.041 123.717 326.052 123.607 326.093 123.507C326.134 123.407 326.204 123.321 326.294 123.261C326.383 123.201 326.488 123.168 326.596 123.168C326.74 123.168 326.878 123.226 326.981 123.329C327.083 123.432 327.14 123.571 327.14 123.716Z" fill="#E8E8E8" stroke="#263238" stroke-width="0.932567" stroke-linecap="round" stroke-linejoin="round"/>
<path d="M327.836 134.764C327.836 134.873 327.804 134.979 327.744 135.069C327.685 135.159 327.6 135.229 327.5 135.27C327.401 135.312 327.291 135.323 327.186 135.302C327.08 135.281 326.983 135.228 326.907 135.152C326.831 135.075 326.779 134.977 326.759 134.871C326.738 134.765 326.748 134.655 326.789 134.554C326.831 134.454 326.9 134.369 326.99 134.309C327.079 134.248 327.184 134.216 327.292 134.216C327.436 134.216 327.575 134.274 327.677 134.377C327.779 134.479 327.836 134.619 327.836 134.764Z" fill="#E8E8E8" stroke="#263238" stroke-width="0.932567" stroke-linecap="round" stroke-linejoin="round"/>
<path d="M375.774 61.2938H265.548C265.038 61.2938 264.624 61.7109 264.624 62.2254V64.2256C264.624 64.7401 265.038 65.1572 265.548 65.1572H375.774C376.284 65.1572 376.698 64.7401 376.698 64.2256V62.2254C376.698 61.7109 376.284 61.2938 375.774 61.2938Z" fill="white"/>
<path d="M375.589 65.1572H265.733" stroke="#263238" stroke-width="0.932567" stroke-linecap="round" stroke-linejoin="round"/>
<path d="M265.733 61.2938H375.589" stroke="#263238" stroke-width="0.932567" stroke-linecap="round" stroke-linejoin="round"/>
<path d="M299.929 87.2909C299.929 87.2909 295.386 86.6498 295.142 87.8773C294.897 89.1048 295.033 91.0721 295.816 91.7133C297.296 92.9298 297.024 95.204 297.024 95.204L300.832 94.8314L300.93 92.9134C301.126 92.2877 301.476 91.7221 301.947 91.2694C303.318 89.9706 302.774 88.5294 302.54 86.7922C302.306 85.0551 301.169 85.8277 301.077 86.7265C301.049 87.5279 301.115 88.3297 301.272 89.1158L299.929 87.2909Z" fill="white" stroke="#263238" stroke-width="0.932567" stroke-linecap="round" stroke-linejoin="round"/>
<path d="M300.995 88.9788C300.995 88.9788 299.907 89.2034 299.048 90.7543L300.995 88.9788Z" fill="white"/>
<path d="M300.995 88.9788C300.995 88.9788 299.907 89.2034 299.048 90.7543" stroke="#263238" stroke-width="0.932567" stroke-linecap="round" stroke-linejoin="round"/>
<path d="M300.996 89.3843H295.49C295.109 89.3959 294.73 89.3155 294.385 89.1496C294.041 88.9837 293.741 88.7372 293.51 88.4307C293.313 88.1523 293.208 87.819 293.208 87.4772C293.208 87.1354 293.313 86.8021 293.51 86.5237L296.263 82.4521C296.501 82.1497 296.803 81.9055 297.148 81.7375C297.493 81.5696 297.871 81.4824 298.254 81.4824C298.637 81.4824 299.015 81.5696 299.36 81.7375C299.704 81.9055 300.007 82.1497 300.245 82.4521L303.003 86.5237C303.2 86.8021 303.305 87.1354 303.305 87.4772C303.305 87.819 303.2 88.1523 303.003 88.4307C302.77 88.7418 302.466 88.9912 302.116 89.1573C301.766 89.3234 301.382 89.4013 300.996 89.3843ZM294.468 86.9731C294.364 87.1184 294.308 87.2928 294.308 87.4717C294.308 87.6507 294.364 87.8251 294.468 87.9704C294.588 88.129 294.744 88.2565 294.922 88.3423C295.101 88.4281 295.298 88.4697 295.496 88.4636H300.996C301.194 88.4701 301.39 88.4287 301.569 88.3429C301.748 88.2571 301.904 88.1294 302.024 87.9704C302.128 87.8254 302.184 87.6509 302.184 87.4717C302.184 87.2926 302.128 87.1181 302.024 86.9731L299.271 82.9069C299.151 82.7444 298.994 82.6136 298.813 82.5258C298.632 82.438 298.433 82.3957 298.232 82.4027C298.032 82.3952 297.833 82.4372 297.653 82.5251C297.473 82.613 297.317 82.7441 297.198 82.9069L294.44 86.9785L294.468 86.9731Z" fill="#263238"/>
<path d="M296.594 87.3456C296.877 88.7924 296.703 89.3075 296.05 89.2308C295.397 89.154 294.739 87.3785 295.642 86.973C296.545 86.5675 297.274 86.2551 297.274 86.2551C297.563 86.0976 297.885 86.0102 298.213 85.9997C298.542 85.9893 298.868 86.0561 299.167 86.1948C300.462 85.74 300.69 86.688 300.69 86.688C300.69 86.688 301.626 89.428 300.848 89.5212C300.07 89.6143 299.428 87.236 299.428 87.236C299.428 87.236 300.402 89.8445 299.51 89.8883C298.617 89.9322 298.101 87.3566 298.101 87.3566C298.101 87.3566 298.683 89.6198 297.84 89.6965C296.996 89.7733 296.594 87.3456 296.594 87.3456Z" fill="white" stroke="#263238" stroke-width="0.932567" stroke-linecap="round" stroke-linejoin="round"/>
<path d="M298.65 64.1215H297.758V82.1123H298.65V64.1215Z" fill="white" stroke="#263238" stroke-width="0.932567" stroke-linecap="round" stroke-linejoin="round"/>
<path d="M299.145 81.8329L298.563 82.6932C298.525 82.7422 298.476 82.7819 298.421 82.8091C298.365 82.8364 298.304 82.8505 298.242 82.8505C298.181 82.8505 298.12 82.8364 298.064 82.8091C298.008 82.7819 297.96 82.7422 297.921 82.6932L297.345 81.8329C297.203 81.6301 297.383 81.3781 297.66 81.3781H298.825C299.107 81.3781 299.281 81.6521 299.145 81.8329Z" fill="white" stroke="#263238" stroke-width="0.932567" stroke-linecap="round" stroke-linejoin="round"/>
<path d="M298.721 75.7938H297.769C297.508 75.7938 297.296 76.0073 297.296 76.2706V80.26C297.296 80.5233 297.508 80.7368 297.769 80.7368H298.721C298.983 80.7368 299.195 80.5233 299.195 80.26V76.2706C299.195 76.0073 298.983 75.7938 298.721 75.7938Z" fill="white" stroke="#263238" stroke-width="0.932567" stroke-linecap="round" stroke-linejoin="round"/>
<path d="M298.721 60.6746H297.769C297.508 60.6746 297.296 60.888 297.296 61.1513V65.1408C297.296 65.4041 297.508 65.6175 297.769 65.6175H298.721C298.983 65.6175 299.195 65.4041 299.195 65.1408V61.1513C299.195 60.888 298.983 60.6746 298.721 60.6746Z" fill="white" stroke="#263238" stroke-width="0.932567" stroke-linecap="round" stroke-linejoin="round"/>
<path d="M288.053 89.3842H282.548C282.166 89.3959 281.787 89.3155 281.443 89.1496C281.098 88.9837 280.798 88.7372 280.568 88.4307C280.371 88.1523 280.265 87.819 280.265 87.4772C280.265 87.1354 280.371 86.8021 280.568 86.5237L283.32 82.4521C283.559 82.1496 283.862 81.9054 284.207 81.7374C284.552 81.5695 284.931 81.4823 285.314 81.4823C285.697 81.4823 286.076 81.5695 286.421 81.7374C286.766 81.9054 287.069 82.1496 287.308 82.4521L290.06 86.5237C290.257 86.8021 290.363 87.1354 290.363 87.4772C290.363 87.819 290.257 88.1523 290.06 88.4307C289.828 88.7418 289.523 88.9912 289.174 89.1573C288.824 89.3234 288.439 89.4013 288.053 89.3842ZM281.525 86.9731C281.422 87.1184 281.366 87.2928 281.366 87.4717C281.366 87.6507 281.422 87.8251 281.525 87.9704C281.645 88.129 281.801 88.2565 281.98 88.3423C282.159 88.4281 282.355 88.4696 282.553 88.4636H288.059C288.257 88.4696 288.455 88.4281 288.634 88.3423C288.814 88.2566 288.971 88.1291 289.092 87.9704C289.196 87.8251 289.251 87.6507 289.251 87.4717C289.251 87.2928 289.196 87.1184 289.092 86.9731L286.34 82.9069C286.22 82.7444 286.063 82.6136 285.882 82.5258C285.701 82.4379 285.501 82.3957 285.3 82.4027C285.1 82.3952 284.902 82.4372 284.721 82.5251C284.541 82.613 284.385 82.7441 284.267 82.9069L281.509 86.9785L281.525 86.9731Z" fill="#263238"/>
<path d="M285.709 64.1215H284.816V82.1123H285.709V64.1215Z" fill="white" stroke="#263238" stroke-width="0.932567" stroke-linecap="round" stroke-linejoin="round"/>
<path d="M286.204 81.8329L285.6 82.6933C285.562 82.7423 285.513 82.7819 285.457 82.8091C285.402 82.8364 285.341 82.8505 285.279 82.8505C285.217 82.8505 285.156 82.8364 285.101 82.8091C285.045 82.7819 284.996 82.7423 284.958 82.6933L284.381 81.8329C284.24 81.6301 284.42 81.3781 284.697 81.3781H285.861C286.144 81.3781 286.34 81.6521 286.204 81.8329Z" fill="white" stroke="#263238" stroke-width="0.932567" stroke-linecap="round" stroke-linejoin="round"/>
<path d="M285.78 75.7938H284.828C284.566 75.7938 284.354 76.0073 284.354 76.2706V80.26C284.354 80.5233 284.566 80.7368 284.828 80.7368H285.78C286.041 80.7368 286.253 80.5233 286.253 80.26V76.2706C286.253 76.0073 286.041 75.7938 285.78 75.7938Z" fill="white" stroke="#263238" stroke-width="0.932567" stroke-linecap="round" stroke-linejoin="round"/>
<path d="M285.78 60.6746H284.828C284.566 60.6746 284.354 60.888 284.354 61.1513V65.1408C284.354 65.4041 284.566 65.6175 284.828 65.6175H285.78C286.041 65.6175 286.253 65.4041 286.253 65.1408V61.1513C286.253 60.888 286.041 60.6746 285.78 60.6746Z" fill="white" stroke="#263238" stroke-width="0.932567" stroke-linecap="round" stroke-linejoin="round"/>
<path d="M344.14 89.3843H338.634C338.253 89.3969 337.873 89.3168 337.529 89.1508C337.184 88.9849 336.884 88.7379 336.654 88.4307C336.457 88.1523 336.352 87.819 336.352 87.4772C336.352 87.1354 336.457 86.8021 336.654 86.5237L339.407 82.4521C339.645 82.1497 339.947 81.9055 340.292 81.7375C340.637 81.5696 341.015 81.4824 341.398 81.4824C341.781 81.4824 342.159 81.5696 342.504 81.7375C342.848 81.9055 343.151 82.1497 343.389 82.4521L346.142 86.5237C346.338 86.8021 346.444 87.1354 346.444 87.4772C346.444 87.819 346.338 88.1523 346.142 88.4307C345.909 88.741 345.606 88.9899 345.257 89.156C344.909 89.3221 344.525 89.4004 344.14 89.3843ZM337.612 86.9731C337.507 87.1181 337.451 87.2926 337.451 87.4717C337.451 87.6509 337.507 87.8254 337.612 87.9704C337.731 88.1294 337.887 88.2571 338.066 88.3429C338.245 88.4287 338.442 88.4701 338.64 88.4636H344.145C344.343 88.4701 344.54 88.4287 344.719 88.3429C344.898 88.2571 345.053 88.1294 345.173 87.9704C345.278 87.8254 345.334 87.6509 345.334 87.4717C345.334 87.2926 345.278 87.1181 345.173 86.9731L342.421 82.9069C342.296 82.7494 342.138 82.6222 341.958 82.5347C341.779 82.4473 341.581 82.4019 341.382 82.4019C341.182 82.4019 340.985 82.4473 340.805 82.5347C340.625 82.6222 340.467 82.7494 340.343 82.9069L337.59 86.9785L337.612 86.9731Z" fill="#263238"/>
<path d="M341.79 64.1215H340.897V82.1123H341.79V64.1215Z" fill="white" stroke="#263238" stroke-width="0.932567" stroke-linecap="round" stroke-linejoin="round"/>
<path d="M342.285 81.8329L341.708 82.6932C341.67 82.7422 341.622 82.7819 341.566 82.8091C341.51 82.8364 341.449 82.8505 341.387 82.8505C341.326 82.8505 341.265 82.8364 341.209 82.8091C341.153 82.7819 341.105 82.7422 341.067 82.6932L340.49 81.8329C340.348 81.6301 340.528 81.3781 340.805 81.3781H341.97C342.247 81.3781 342.427 81.6521 342.285 81.8329Z" fill="white" stroke="#263238" stroke-width="0.932567" stroke-linecap="round" stroke-linejoin="round"/>
<path d="M341.866 75.7938H340.914C340.653 75.7938 340.441 76.0073 340.441 76.2706V80.26C340.441 80.5233 340.653 80.7368 340.914 80.7368H341.866C342.127 80.7368 342.339 80.5233 342.339 80.26V76.2706C342.339 76.0073 342.127 75.7938 341.866 75.7938Z" fill="white" stroke="#263238" stroke-width="0.932567" stroke-linecap="round" stroke-linejoin="round"/>
<path d="M341.866 60.6746H340.914C340.653 60.6746 340.441 60.888 340.441 61.1513V65.1408C340.441 65.4041 340.653 65.6175 340.914 65.6175H341.866C342.127 65.6175 342.339 65.4041 342.339 65.1408V61.1513C342.339 60.888 342.127 60.6746 341.866 60.6746Z" fill="white" stroke="#263238" stroke-width="0.932567" stroke-linecap="round" stroke-linejoin="round"/>
<path d="M356.473 89.3843H350.967C350.586 89.3959 350.207 89.3155 349.862 89.1496C349.518 88.9837 349.218 88.7372 348.987 88.4307C348.79 88.1523 348.685 87.819 348.685 87.4772C348.685 87.1354 348.79 86.8021 348.987 86.5237V86.5237L351.74 82.4521C351.978 82.1496 352.281 81.9054 352.627 81.7374C352.972 81.5695 353.35 81.4823 353.734 81.4823C354.117 81.4823 354.495 81.5695 354.841 81.7374C355.186 81.9054 355.489 82.1496 355.727 82.4521L358.48 86.5237C358.677 86.8021 358.782 87.1354 358.782 87.4772C358.782 87.819 358.677 88.1523 358.48 88.4307C358.247 88.7418 357.943 88.9912 357.593 89.1573C357.243 89.3234 356.859 89.4013 356.473 89.3843V89.3843ZM349.945 86.9731C349.841 87.1184 349.785 87.2928 349.785 87.4717C349.785 87.6507 349.841 87.8251 349.945 87.9704C350.065 88.129 350.221 88.2565 350.399 88.3423C350.578 88.4281 350.775 88.4696 350.973 88.4636H356.478C356.677 88.4696 356.874 88.4281 357.054 88.3423C357.233 88.2566 357.39 88.1291 357.512 87.9704C357.615 87.8251 357.671 87.6507 357.671 87.4717C357.671 87.2928 357.615 87.1184 357.512 86.9731L354.759 82.9069C354.639 82.7444 354.482 82.6136 354.301 82.5258C354.12 82.4379 353.921 82.3957 353.72 82.4027C353.52 82.3952 353.321 82.4372 353.141 82.5251C352.961 82.613 352.805 82.7441 352.686 82.9069L349.928 86.9785L349.945 86.9731Z" fill="#263238"/>
<path d="M354.128 64.1215H353.236V82.1123H354.128V64.1215Z" fill="white" stroke="#263238" stroke-width="0.932567" stroke-linecap="round" stroke-linejoin="round"/>
<path d="M354.623 81.8329L354.04 82.6933C354.002 82.7423 353.954 82.7819 353.898 82.8091C353.842 82.8364 353.781 82.8505 353.72 82.8505C353.658 82.8505 353.597 82.8364 353.541 82.8091C353.485 82.7819 353.437 82.7423 353.399 82.6933L352.822 81.8329C352.68 81.6301 352.86 81.3781 353.137 81.3781H354.302C354.584 81.3781 354.759 81.6521 354.623 81.8329Z" fill="white" stroke="#263238" stroke-width="0.932567" stroke-linecap="round" stroke-linejoin="round"/>
<path d="M354.198 75.7938H353.246C352.985 75.7938 352.773 76.0073 352.773 76.2706V80.26C352.773 80.5233 352.985 80.7368 353.246 80.7368H354.198C354.46 80.7368 354.671 80.5233 354.671 80.26V76.2706C354.671 76.0073 354.46 75.7938 354.198 75.7938Z" fill="white" stroke="#263238" stroke-width="0.932567" stroke-linecap="round" stroke-linejoin="round"/>
<path d="M354.198 60.6746H353.246C352.985 60.6746 352.773 60.888 352.773 61.1513V65.1408C352.773 65.4041 352.985 65.6175 353.246 65.6175H354.198C354.46 65.6175 354.671 65.4041 354.671 65.1408V61.1513C354.671 60.888 354.46 60.6746 354.198 60.6746Z" fill="white" stroke="#263238" stroke-width="0.932567" stroke-linecap="round" stroke-linejoin="round"/>
<path d="M301.42 93.9656L301.708 96.3055L295.789 96.585L296.284 94.2396L301.42 93.9656Z" fill="#E8E8E8" stroke="#263238" stroke-width="0.932567" stroke-linecap="round" stroke-linejoin="round"/>
<path d="M311.456 113.633C311.456 113.633 301.18 123.152 298.808 123.3C298.226 123.338 297.72 123.706 297.231 123.371C296.143 122.626 294.57 121.048 294.799 114.636C294.919 111.129 297.024 96.5138 297.024 96.5138L300.832 96.3439L301.757 112.784C305.021 109.375 310.695 104.652 310.7 104.652C312.473 110.362 311.456 113.633 311.456 113.633Z" fill="white" stroke="#263238" stroke-width="0.932567" stroke-linecap="round" stroke-linejoin="round"/>
<path d="M337.372 126.867C337.628 125.731 338.115 124.66 338.803 123.722L337.372 126.867Z" fill="white"/>
<path d="M337.372 126.867C337.628 125.731 338.115 124.66 338.803 123.722" stroke="#263238" stroke-width="0.932567" stroke-linecap="round" stroke-linejoin="round"/>
<path d="M300.593 116.653C300.99 116.472 301.936 114.691 301.741 111.65" stroke="#263238" stroke-width="0.932567" stroke-linecap="round" stroke-linejoin="round"/>
<path d="M304.243 77.6132V71.0646C304.245 70.7482 304.37 70.4452 304.592 70.2215C304.814 69.9978 305.115 69.8714 305.429 69.87H315.634C315.949 69.8714 316.249 69.9978 316.471 70.2215C316.694 70.4452 316.819 70.7482 316.82 71.0646V77.6132C316.82 77.9301 316.695 78.2339 316.473 78.458C316.251 78.682 315.949 78.8079 315.634 78.8079H312.082L312.365 81.3013H310.532V83.6577L308.356 79.8217H310.135L309.95 78.8134H305.424C305.268 78.8126 305.114 78.781 304.97 78.7203C304.827 78.6596 304.696 78.571 304.587 78.4596C304.477 78.3481 304.39 78.216 304.331 78.0708C304.272 77.9256 304.242 77.7701 304.243 77.6132Z" fill="white" stroke="#263238" stroke-width="0.932567" stroke-linecap="round" stroke-linejoin="round"/>
<path d="M313.088 72.1113H306.19" stroke="#263238" stroke-width="0.932567" stroke-linecap="round" stroke-linejoin="round"/>
<path d="M314.873 73.969H306.19" stroke="#263238" stroke-width="0.932567" stroke-linecap="round" stroke-linejoin="round"/>
<path d="M313.534 75.8213H306.19" stroke="#263238" stroke-width="0.932567" stroke-linecap="round" stroke-linejoin="round"/>
<path d="M77.2698 239.695C91.2975 239.695 102.669 238.01 102.669 235.931C102.669 233.851 91.2975 232.166 77.2698 232.166C63.2422 232.166 51.8705 233.851 51.8705 235.931C51.8705 238.01 63.2422 239.695 77.2698 239.695Z" fill="#E8E8E8"/>
<path d="M75.0445 175.935C99.4735 175.935 119.277 155.986 119.277 131.378C119.277 106.769 99.4735 86.8197 75.0445 86.8197C50.6155 86.8197 30.8119 106.769 30.8119 131.378C30.8119 155.986 50.6155 175.935 75.0445 175.935Z" fill="#E8E8E8"/>
<path d="M54.6441 160.515C54.6441 160.515 55.7702 167.091 51.9677 174.483H99.5187C99.5187 174.483 97.3427 171.036 95.0633 160.515H54.6441Z" fill="white" stroke="#263238" stroke-width="0.87381" stroke-linecap="round" stroke-linejoin="round"/>
<path d="M65.4864 162.033C62.8836 162.243 60.3889 163.173 58.2772 164.72C56.1654 166.267 54.5187 168.371 53.5184 170.801C53.0071 172.05 52.4739 173.316 51.968 174.5C49.0739 181.246 51.8103 191.06 59.2087 191.06H93.1325C99.84 191.06 101.673 182.506 100.068 176.062C99.0349 171.919 96.9514 167.759 93.3936 164.844C88.639 160.926 74.7453 161.287 65.4864 162.033Z" fill="#263238" stroke="#263238" stroke-width="0.87381" stroke-linecap="round" stroke-linejoin="round"/>
<path d="M33.097 154.794C33.097 154.794 27.0151 158.498 26.8138 160.515H34.2721L37.2369 158.372L36.2359 160.526H38.5044C38.5044 160.526 40.9143 158.641 41.0449 156.553L40.8001 154.794L36.4481 152.843L33.097 154.794Z" fill="white" stroke="#263238" stroke-width="0.87381" stroke-linecap="round" stroke-linejoin="round"/>
<path d="M104.339 141.187C104.339 141.187 103.365 134.737 101.227 125.448C99.0894 116.16 94.9115 115.431 94.9115 115.431H94.8734C89.4334 113.074 75.2894 111.803 75.2894 111.803H74.6366C74.6366 111.803 60.46 113.074 55.0526 115.431H55.0146C55.0146 115.431 50.7986 116.176 48.6606 125.448C46.5227 134.72 45.5435 141.187 45.5435 141.187C45.5435 141.187 41.6811 142.239 34.7288 151.051C33.6373 152.448 32.7082 153.967 31.9598 155.577V155.577C31.9598 155.577 37.3019 153.807 41.0446 156.52C41.0446 156.52 53.3064 151.281 53.9211 145.757C53.9211 145.56 53.9701 145.341 53.9973 145.105C54.3454 153.489 54.6446 160.493 54.6446 160.493H95.2379C95.2379 160.493 95.5426 153.489 95.8907 145.105C95.8907 145.341 95.9397 145.56 95.9614 145.757C96.5816 151.281 110.154 157.473 110.154 157.473C113.875 151.708 119.277 154.892 119.277 154.892L104.339 141.187Z" fill="white"/>
<path opacity="0.3" d="M53.9212 145.768C53.9212 145.604 53.9647 145.417 53.9864 145.22L53.0997 125.815C53.0997 125.815 50.6517 126.32 51.3535 132.276C52.0552 138.233 53.5295 137.208 52.708 139.504C51.8866 141.801 48.6988 139.17 47.6434 141.148C46.588 143.127 53.5404 142.705 50.668 147.801C47.7957 152.898 41.0447 156.569 41.0447 156.569C41.0447 156.569 53.3119 151.303 53.9212 145.768Z" fill="black"/>
<g opacity="0.3">
<path opacity="0.3" d="M96.1521 145.768C96.1521 145.604 97.7515 145.889 96.1521 145.768L96.6363 129.158C96.6363 129.158 96.5166 137.192 97.3707 139.504C98.2247 141.817 101.38 139.17 102.43 141.148C103.48 143.127 96.5329 142.705 99.4107 147.801C102.288 152.898 109.029 156.569 109.029 156.569C109.029 156.569 96.7723 151.303 96.1521 145.768Z" fill="black"/>
</g>
<path opacity="0.3" d="M95.5318 149.549C95.2653 155.835 95.064 160.509 95.064 160.509H58.567C83.047 160.509 95.559 149.549 95.559 149.549H95.5318Z" fill="black"/>
<path d="M104.339 141.187C104.339 141.187 103.365 134.737 101.227 125.448C99.0894 116.16 94.9115 115.431 94.9115 115.431H94.8734C89.4334 113.074 75.2894 111.803 75.2894 111.803H74.6366C74.6366 111.803 60.46 113.074 55.0526 115.431H55.0146C55.0146 115.431 50.7986 116.176 48.6606 125.448C46.5227 134.72 45.5435 141.187 45.5435 141.187C45.5435 141.187 41.6811 142.239 34.7288 151.051C33.6373 152.448 32.7082 153.967 31.9598 155.577V155.577C31.9598 155.577 37.3019 153.807 41.0446 156.52C41.0446 156.52 53.3064 151.281 53.9211 145.757C53.9211 145.56 53.9701 145.341 53.9973 145.105C54.3454 153.489 54.6446 160.493 54.6446 160.493H95.2379C95.2379 160.493 95.5426 153.489 95.8907 145.105C95.8907 145.341 95.9397 145.56 95.9614 145.757C96.5816 151.281 110.154 157.473 110.154 157.473C113.875 151.708 119.277 154.892 119.277 154.892L104.339 141.187Z" stroke="#263238" stroke-width="0.87381" stroke-linecap="round" stroke-linejoin="round"/>
<path d="M46.8436 141.148C48.8011 141.049 50.7197 141.724 52.1911 143.028" stroke="#263238" stroke-width="0.87381" stroke-linecap="round" stroke-linejoin="round"/>
<path d="M50.6678 126.396C50.6678 126.396 53.1811 126.944 53.7578 139.252L53.0016 123.097" stroke="#263238" stroke-width="0.87381" stroke-linecap="round" stroke-linejoin="round"/>
<path d="M53.7905 140.962L53.9051 143.456" stroke="#263238" stroke-width="0.87381" stroke-linecap="round" stroke-linejoin="round"/>
<path d="M103.045 141.149C101.091 141.042 99.1727 141.706 97.6971 143.001" stroke="#263238" stroke-width="0.87381" stroke-linecap="round" stroke-linejoin="round"/>
<path d="M96.7336 126.396C96.7809 125.3 96.8319 124.204 96.8864 123.108" stroke="#263238" stroke-width="0.87381" stroke-linecap="round" stroke-linejoin="round"/>
<path d="M82.5628 112.691C81.9045 116.012 78.7167 117.212 74.8761 117.212C71.0354 117.212 67.8585 116.017 67.1893 112.707H67.3417C67.7395 112.653 68.1115 112.478 68.4087 112.206C68.7059 111.934 68.9143 111.578 69.0063 111.184C69.0596 111.027 69.0871 110.862 69.0879 110.696V106.8H80.8383V110.696C80.8369 110.94 80.8812 111.181 80.9689 111.408C81.0955 111.747 81.3105 112.045 81.591 112.27C81.8715 112.496 82.2072 112.641 82.5628 112.691Z" fill="white"/>
<path d="M80.74 109.715C78.7925 111.644 76.6219 112.844 74.5275 112.938C72.3515 113.036 69.8274 111.239 68.7992 109.474C68.8417 109.321 68.8618 109.162 68.859 109.003V107.808L80.6094 107.934V109.003C80.6094 109.255 80.9086 109.551 80.74 109.715Z" fill="#263238"/>
<path d="M82.5628 112.691C81.9045 116.012 78.7167 117.212 74.8761 117.212C71.0354 117.212 67.8585 116.017 67.1893 112.707H67.3417C67.7395 112.653 68.1115 112.478 68.4087 112.206C68.7059 111.934 68.9143 111.578 69.0063 111.184C69.0596 111.027 69.0871 110.862 69.0879 110.696V106.8H80.8383V110.696C80.8369 110.94 80.8812 111.181 80.9689 111.408C81.0955 111.747 81.3105 112.045 81.591 112.27C81.8715 112.496 82.2072 112.641 82.5628 112.691V112.691Z" stroke="#263238" stroke-width="0.87381" stroke-linecap="round" stroke-linejoin="round"/>
<path d="M66.2916 98.4318C66.2916 98.4318 62.217 93.7903 62.7501 87.3951C63.2832 81 68.4948 81 68.4948 81C68.4948 81 74.778 75.4158 81.7901 78.9121C88.8023 82.4083 88.3181 94.5301 83.1284 97.5441L66.2916 98.4318Z" fill="#263238"/>
<path d="M84.2545 95.3083C84.3089 94.2452 84.3035 93.5876 84.3035 93.5876C83.8356 90.7599 80.403 90.4749 78.8254 90.4256C72.2158 90.2009 70.475 86.1183 70.475 86.1183C66.4657 84.9073 65.3287 93.5876 65.3287 93.5876C65.3287 93.5876 65.3288 94.2452 65.3832 95.3083C64.675 95.4445 64.039 95.8327 63.5916 96.4022C63.1441 96.9717 62.915 97.6844 62.946 98.41C62.946 100.142 64.1863 101.539 65.7204 101.539C65.8755 101.538 66.0303 101.524 66.1828 101.495L66.9009 105.572C67.0369 106.487 67.891 108.652 68.658 109.167C70.29 110.263 72.874 111.825 74.8161 111.825C76.4916 111.825 78.8417 110.433 80.5771 109.485C81.5454 108.937 82.6116 106.838 82.7041 105.737L83.1556 101.616C83.4106 101.604 83.6649 101.578 83.9172 101.539C85.4459 101.539 86.6916 100.142 86.6916 98.41C86.7227 97.6844 86.4936 96.9717 86.0461 96.4022C85.5986 95.8327 84.9627 95.4445 84.2545 95.3083Z" fill="white" stroke="#263238" stroke-width="0.87381" stroke-linecap="round" stroke-linejoin="round"/>
<path d="M64.0124 92.6779H63.2943V95.2535H64.0124V92.6779Z" fill="white" stroke="#263238" stroke-width="0.87381" stroke-linecap="round" stroke-linejoin="round"/>
<path d="M85.9517 92.6779H85.2336V95.2535H85.9517V92.6779Z" fill="white" stroke="#263238" stroke-width="0.87381" stroke-linecap="round" stroke-linejoin="round"/>
<path d="M74.6202 81.4275C71.5663 81.4269 68.6312 82.6196 66.4325 84.7547C64.2338 86.8898 62.943 89.8008 62.8317 92.8752C62.8295 92.9324 62.8389 92.9895 62.8593 93.043C62.8797 93.0965 62.9107 93.1452 62.9504 93.1863C62.9901 93.2273 63.0377 93.2597 63.0902 93.2816C63.1428 93.3035 63.1992 93.3144 63.2561 93.3136H64.0177C64.1283 93.3136 64.2347 93.2701 64.3139 93.1923C64.3932 93.1145 64.4391 93.0086 64.442 92.8971C64.5631 90.2599 65.6883 87.771 67.5838 85.9478C69.4794 84.1246 71.9994 83.1073 74.6202 83.1073C77.241 83.1073 79.7611 84.1246 81.6566 85.9478C83.5522 87.771 84.6774 90.2599 84.7985 92.8971C84.8027 93.0091 84.8498 93.115 84.93 93.1927C85.0101 93.2703 85.117 93.3137 85.2282 93.3136H85.9844C86.0415 93.3144 86.0982 93.3035 86.151 93.2817C86.2038 93.2598 86.2518 93.2275 86.2919 93.1865C86.332 93.1456 86.3635 93.0969 86.3845 93.0434C86.4056 92.9899 86.4156 92.9327 86.4142 92.8752C86.3015 89.8004 85.0095 86.8893 82.81 84.7544C80.6104 82.6194 77.6747 81.4268 74.6202 81.4275Z" fill="white" stroke="#263238" stroke-width="0.87381" stroke-linecap="round" stroke-linejoin="round"/>
<path d="M65.2364 94.3274H65.0732C64.1102 94.3645 63.199 94.7759 62.5307 95.4753C61.8624 96.1747 61.4891 97.1077 61.4891 98.0785C61.4891 99.0492 61.8624 99.9822 62.5307 100.682C63.199 101.381 64.1102 101.792 65.0732 101.83H65.2364V94.3274Z" fill="#263238" stroke="#263238" stroke-width="0.87381" stroke-miterlimit="10"/>
<path d="M66.1228 98.0921C66.1228 100.87 66.2425 102.679 65.2905 102.679C64.3385 102.679 64.0121 100.87 64.0121 98.0921C64.0121 95.3138 64.3385 93.4999 65.2905 93.4999C66.2425 93.4999 66.1228 95.2864 66.1228 98.0921Z" fill="white" stroke="#263238" stroke-width="0.87381" stroke-linecap="round" stroke-linejoin="round"/>
<path d="M84.0096 94.3273H84.1728C85.1358 94.3644 86.047 94.7758 86.7153 95.4752C87.3836 96.1746 87.7569 97.1076 87.7569 98.0783C87.7569 99.0491 87.3836 99.9821 86.7153 100.681C86.047 101.381 85.1358 101.792 84.1728 101.829H84.0096V94.3273Z" fill="#263238" stroke="#263238" stroke-width="0.87381" stroke-miterlimit="10"/>
<path d="M83.1174 98.0921C83.1174 100.87 83.0032 102.679 83.9552 102.679C84.9072 102.679 85.2336 100.87 85.2336 98.0921C85.2336 95.3138 84.9072 93.4999 83.9552 93.4999C83.0032 93.4999 83.1174 95.2864 83.1174 98.0921Z" fill="white" stroke="#263238" stroke-width="0.87381" stroke-linecap="round" stroke-linejoin="round"/>
<path d="M68.2552 98.7661C68.2552 98.7661 69.8056 100.69 72.7106 99.1716" stroke="#263238" stroke-width="0.87381" stroke-linecap="round" stroke-linejoin="round"/>
<path d="M72.7108 106.246C73.352 106.716 74.1242 106.968 74.9167 106.968C75.7093 106.968 76.4815 106.716 77.1227 106.246" stroke="#263238" stroke-width="0.75" stroke-linecap="round" stroke-linejoin="round"/>
<path d="M67.8256 96.1851C67.8256 96.1851 70.638 94.026 73.1405 96.1851" stroke="#263238" stroke-width="0.87381" stroke-linecap="round" stroke-linejoin="round"/>
<path d="M81.638 96.2563C81.638 96.2563 78.8255 94.0643 76.3231 96.2563" stroke="#263238" stroke-width="0.87381" stroke-linecap="round" stroke-linejoin="round"/>
<path d="M76.9596 103.221C76.9596 103.221 77.2098 104.624 74.6584 104.591C74.0328 104.591 72.8959 104.142 72.8578 103.221" stroke="#263238" stroke-width="0.75" stroke-linecap="round" stroke-linejoin="round"/>
<path d="M68.8651 99.2758C69.099 99.7416 69.6267 100.279 70.8072 100.306C71.9877 100.333 72.1944 99.8621 72.2162 99.4018C71.6901 99.659 71.1093 99.7819 70.525 99.76C69.9407 99.738 69.3707 99.5717 68.8651 99.2758V99.2758Z" fill="#263238"/>
<path d="M81.2297 98.7661C81.2297 98.7661 79.6793 100.69 76.7743 99.1716" stroke="#263238" stroke-width="0.87381" stroke-linecap="round" stroke-linejoin="round"/>
<path d="M80.6209 99.2758C80.387 99.7416 79.8593 100.279 78.6789 100.306C77.4984 100.333 77.2917 99.8621 77.2699 99.4018C77.7958 99.6594 78.3766 99.7827 78.9611 99.7607C79.5455 99.7387 80.1155 99.5722 80.6209 99.2758V99.2758Z" fill="#263238"/>
<path d="M69.8332 78.3312C69.8332 78.3312 68.4025 79.1367 68.5603 81.4274C68.5603 81.4274 68.0598 79.882 66.2211 80.5561" stroke="#263238" stroke-width="0.87381" stroke-linecap="round" stroke-linejoin="round"/>
<path d="M74.9412 118.916C76.8162 118.916 78.6453 118.332 80.178 117.244C81.7108 116.156 82.8724 114.617 83.5037 112.839C83.0087 112.762 82.5191 112.696 82.0458 112.63C81.3003 113.853 80.256 114.863 79.0127 115.564C77.7694 116.265 76.3685 116.633 74.9439 116.633C73.5192 116.633 72.1184 116.265 70.8751 115.564C69.6317 114.863 68.5875 113.853 67.842 112.63C67.3687 112.696 66.8791 112.762 66.384 112.839C67.0151 114.616 68.1758 116.154 69.7075 117.242C71.2392 118.33 73.0671 118.915 74.9412 118.916Z" fill="#263238" stroke="#263238" stroke-width="0.87381" stroke-linecap="round" stroke-linejoin="round"/>
<path d="M95.8905 145.127C96.1299 139.786 96.371 134.443 96.614 129.098" stroke="#263238" stroke-width="0.87381" stroke-linecap="round" stroke-linejoin="round"/>
<path d="M96.0699 90.5352V84.6332C96.0699 84.3426 95.9552 84.0638 95.7512 83.8582C95.5471 83.6527 95.2704 83.5372 94.9819 83.5372H85.81C85.5215 83.5372 85.2448 83.6527 85.0407 83.8582C84.8367 84.0638 84.722 84.3426 84.722 84.6332V90.5352C84.722 90.8259 84.8367 91.1046 85.0407 91.3102C85.2448 91.5157 85.5215 91.6312 85.81 91.6312H89.0087L88.7531 93.878H90.3851V95.9987L92.338 92.5409H90.7332L90.9019 91.6312H94.9764C95.1197 91.6319 95.2618 91.6041 95.3944 91.5493C95.5271 91.4946 95.6477 91.414 95.7493 91.3121C95.8509 91.2103 95.9315 91.0892 95.9865 90.9559C96.0415 90.8225 96.0699 90.6796 96.0699 90.5352Z" fill="white" stroke="#263238" stroke-width="0.87381" stroke-linecap="round" stroke-linejoin="round"/>
<path d="M86.496 85.5813H92.7139" stroke="#263238" stroke-width="0.87381" stroke-linecap="round" stroke-linejoin="round"/>
<path d="M86.496 87.2527H94.3133" stroke="#263238" stroke-width="0.87381" stroke-linecap="round" stroke-linejoin="round"/>
<path d="M86.496 88.9241H93.111" stroke="#263238" stroke-width="0.87381" stroke-linecap="round" stroke-linejoin="round"/>
<path d="M124.249 157.66C124.249 159.402 121.529 160.493 118.189 160.493C114.849 160.493 112.129 159.397 112.129 157.66C112.129 155.922 114.849 154.498 118.189 154.498C121.529 154.498 124.249 155.912 124.249 157.66Z" fill="white" stroke="#263238" stroke-width="0.87381" stroke-linecap="round" stroke-linejoin="round"/>
<path d="M114.267 159.863C114.43 159.824 114.561 158.904 113.087 158.219C112.064 157.747 112.037 157.249 112.624 156.635C113.212 156.021 114.213 155.506 114.985 155.731C116.242 156.092 117.074 158.728 117.634 158.158C118.478 157.939 117.46 155.522 115.953 154.728C118.673 155.407 118.804 158.564 120.055 158.312C121.013 158.125 119.359 154.991 117.928 154.065C118.845 154.495 119.647 155.139 120.267 155.944C121.176 157.276 121.279 157.725 121.899 157.534C122.704 157.276 120.784 154.35 120.545 154.032C121.752 154.514 121.981 155.533 122.351 155.944C122.721 156.355 122.895 157.04 123.406 156.772C123.918 156.503 123.444 155.55 123.102 154.991C121.47 152.333 118.75 151.889 116.16 152.218C114.115 152.481 111.765 153.347 110.519 154.991C110.202 155.401 110.016 155.897 109.984 156.416C109.953 156.934 110.079 157.45 110.345 157.895C110.78 158.821 112.336 160.301 114.267 159.863Z" fill="white" stroke="#263238" stroke-width="0.87381" stroke-linecap="round" stroke-linejoin="round"/>
<path d="M125.838 160.515H25.7256C25.4281 160.515 25.187 160.758 25.187 161.057V161.929C25.187 162.228 25.4281 162.471 25.7256 162.471H125.838C126.135 162.471 126.376 162.228 126.376 161.929V161.057C126.376 160.758 126.135 160.515 125.838 160.515Z" fill="#BFBFBF" stroke="#263238" stroke-width="0.87381" stroke-miterlimit="10"/>
<path d="M28.6631 160.515L21.2974 137.965C21.2696 137.877 21.2624 137.784 21.2763 137.693C21.2902 137.601 21.3249 137.515 21.3776 137.439C21.4302 137.364 21.4995 137.302 21.58 137.258C21.6605 137.214 21.7499 137.19 21.8414 137.186H45.1082L53.3934 160.515H28.6631Z" fill="#263238"/>
<path d="M45.7447 137.186L53.3607 159.205H73.7607V159.978C73.7607 160.123 73.7034 160.262 73.6014 160.365C73.4994 160.468 73.361 160.526 73.2167 160.526H52.0551L44.7274 138.096C44.695 137.995 44.6865 137.888 44.7027 137.784C44.719 137.679 44.7595 137.58 44.8209 137.494C44.8824 137.408 44.9631 137.338 45.0565 137.289C45.1499 137.24 45.2533 137.215 45.3585 137.214L45.7447 137.186Z" fill="white" stroke="#263238" stroke-width="0.87381" stroke-linecap="round" stroke-linejoin="round"/>
<path d="M34.9404 148.853C34.8686 148.47 34.6914 148.115 34.4291 147.828C34.543 147.693 34.6858 147.585 34.8469 147.513C35.0079 147.441 35.1831 147.406 35.3593 147.412C35.7705 147.43 36.1647 147.582 36.4819 147.846C36.7991 148.11 37.0219 148.472 37.1164 148.875C37.1667 149.05 37.175 149.234 37.1405 149.413C37.106 149.591 37.0298 149.759 36.9181 149.902C36.8065 150.045 36.6626 150.159 36.4984 150.235C36.3342 150.311 36.1545 150.346 35.974 150.338C35.5569 150.329 35.1563 150.171 34.8425 149.894C34.9994 149.571 35.0342 149.201 34.9404 148.853Z" fill="white"/>
<path d="M82.0786 160.515H89.5151C90.5057 159.784 91.3085 158.825 91.8564 157.719C92.4044 156.612 92.6815 155.389 92.6648 154.152V150.629C92.6648 150.495 92.6386 150.362 92.5878 150.239C92.5369 150.115 92.4624 150.003 92.3685 149.908C92.2745 149.813 92.163 149.738 92.0402 149.687C91.9174 149.636 91.7859 149.609 91.653 149.609H79.9679C79.8352 149.609 79.7039 149.636 79.5815 149.687C79.459 149.738 79.3478 149.814 79.2543 149.908C79.1608 150.003 79.0868 150.115 79.0365 150.239C78.9862 150.363 78.9607 150.495 78.9614 150.629V154.152C78.9405 155.386 79.2125 156.607 79.7547 157.714C80.2969 158.821 81.0936 159.781 82.0786 160.515Z" fill="white" stroke="#263238" stroke-width="0.87381" stroke-linecap="round" stroke-linejoin="round"/>
<path d="M94.7751 151.111C94.4617 150.912 94.1025 150.799 93.7326 150.782C93.3627 150.764 92.9947 150.844 92.6643 151.013V152.284C92.9866 152.23 93.3175 152.296 93.5946 152.47C94.6445 153.084 94.4215 154.339 93.6871 155.616C93.3511 156.339 92.7735 156.921 92.0551 157.26C91.8404 157.787 91.5686 158.289 91.2445 158.756C92.6426 159.063 93.921 157.868 94.922 156.125C96.097 154.076 96.4506 152.087 94.7751 151.111Z" fill="white" stroke="#263238" stroke-width="0.87381" stroke-linecap="round" stroke-linejoin="round"/>
<path d="M85.9517 144.058C86.2221 143.171 86.356 142.247 86.3489 141.318C86.3489 136.167 81.5399 135.559 81.5399 129.706" stroke="#263238" stroke-width="0.87381" stroke-linecap="round" stroke-linejoin="round"/>
<path d="M82.5409 148.601C83.4119 148.055 84.1649 147.337 84.755 146.491" stroke="#263238" stroke-width="0.87381" stroke-linecap="round" stroke-linejoin="round"/>
<path d="M85.5336 134.616C85.2642 134.113 85.152 133.54 85.2118 132.972" stroke="#263238" stroke-width="0.87381" stroke-linecap="round" stroke-linejoin="round"/>
<path d="M89.281 141.85C89.0362 140.239 88.1169 138.726 87.2084 137.351" stroke="#263238" stroke-width="0.87381" stroke-linecap="round" stroke-linejoin="round"/>
<path d="M86.496 148.661C86.496 148.661 88.0845 147.987 88.9548 144.946" stroke="#263238" stroke-width="0.87381" stroke-linecap="round" stroke-linejoin="round"/>
<path d="M96.212 191.044H55.4773C52.5029 191.044 50.0917 193.473 50.0917 196.469V223.595C50.0917 226.591 52.5029 229.02 55.4773 229.02H96.212C99.1864 229.02 101.598 226.591 101.598 223.595V196.469C101.598 193.473 99.1864 191.044 96.212 191.044Z" fill="white" stroke="#263238" stroke-width="0.87381" stroke-miterlimit="10"/>
<path d="M62.9677 217.172L63.5824 228.006L63.6531 228.1C64.1399 228.758 64.7742 229.291 65.5044 229.655C66.2345 230.019 67.0398 230.204 67.8545 230.195C68.6692 230.186 69.4703 229.983 70.1923 229.603C70.9142 229.222 71.5367 228.675 72.0089 228.006L72.2374 217.172H62.9677Z" fill="white" stroke="#263238" stroke-width="0.87381" stroke-linecap="round" stroke-linejoin="round"/>
<path d="M74.2723 238.594C70.1458 239.323 65.9249 239.323 61.7984 238.594C61.4131 238.21 61.0819 237.775 60.8137 237.301C60.3966 236.553 60.161 235.716 60.126 234.859C60.091 234.002 60.2577 233.148 60.6125 232.369L63.0985 227.902L72.9504 228.012L75.1699 232.089C75.7025 233.057 75.932 234.164 75.8281 235.265C75.7242 236.367 75.2918 237.41 74.5878 238.26C74.4885 238.376 74.3832 238.488 74.2723 238.594Z" fill="#BFBFBF" stroke="#263238" stroke-width="0.87381" stroke-miterlimit="10"/>
<path d="M71.851 232.971C72.4604 233.242 73.0417 233.572 73.5863 233.958L71.851 232.971Z" fill="#BFBFBF"/>
<path d="M71.851 232.971C72.4604 233.242 73.0417 233.572 73.5863 233.958" stroke="#263238" stroke-width="0.87381" stroke-miterlimit="10"/>
<path d="M62.5599 233.958C63.6412 233.212 64.8587 232.69 66.1418 232.422C67.4249 232.154 68.748 232.145 70.0345 232.396" fill="#BFBFBF"/>
<path d="M62.5599 233.958C63.6412 233.212 64.8587 232.69 66.1418 232.422C67.4249 232.154 68.748 232.145 70.0345 232.396" stroke="#263238" stroke-width="0.87381" stroke-miterlimit="10"/>
<path d="M57.6639 172.461L62.0159 222.702H73.2712C73.2712 222.702 74.3864 192.014 75.0936 172.089C75.1399 170.907 74.9482 169.727 74.5302 168.622C74.1121 167.516 73.4764 166.508 72.6612 165.656C71.8459 164.805 70.8681 164.128 69.7866 163.668C68.7051 163.207 67.5421 162.971 66.3679 162.975C65.1623 162.971 63.9691 163.219 62.8638 163.704C61.7585 164.189 60.7652 164.9 59.9469 165.792C59.1286 166.684 58.5031 167.737 58.1101 168.885C57.7171 170.033 57.5652 171.251 57.6639 172.461Z" fill="#263238"/>
<path d="M68.8648 163.332C68.0452 163.089 67.1948 162.969 66.3407 162.975V162.975C65.1374 162.975 63.9472 163.226 62.8451 163.713C61.743 164.199 60.753 164.911 59.9377 165.802C59.1223 166.693 58.4993 167.745 58.1079 168.891C57.7165 170.038 57.5654 171.253 57.6639 172.461L59.2088 191.044" stroke="white" stroke-width="0.87381" stroke-linecap="round" stroke-linejoin="round"/>
<path d="M73.5648 166.756C73.119 166.118 72.5944 165.54 72.0036 165.036C72.0036 165.036 71.3236 164.488 71.0189 164.312" stroke="white" stroke-width="0.87381" stroke-linecap="round" stroke-linejoin="round"/>
<path d="M74.348 191.044C74.5711 184.824 74.9192 177.547 75.1096 172.089C75.1616 170.734 74.9009 169.385 74.348 168.148" stroke="white" stroke-width="0.87381" stroke-linecap="round" stroke-linejoin="round"/>
<path d="M81.2787 217.172L81.8934 228.006L81.9641 228.1C82.4509 228.758 83.0852 229.291 83.8154 229.655C84.5456 230.019 85.3509 230.204 86.1656 230.195C86.9803 230.186 87.7813 229.983 88.5033 229.603C89.2253 229.222 89.8478 228.675 90.3199 228.006L90.5484 217.172H81.2787Z" fill="white" stroke="#263238" stroke-width="0.87381" stroke-linecap="round" stroke-linejoin="round"/>
<path d="M92.5829 238.594C88.4564 239.323 84.2355 239.323 80.109 238.594C79.7246 238.211 79.395 237.775 79.1298 237.301C78.7105 236.554 78.4732 235.717 78.4373 234.86C78.4014 234.002 78.5678 233.149 78.923 232.369L81.4146 227.902L91.261 228.012L93.4805 232.089C94.0131 233.057 94.2426 234.164 94.1387 235.265C94.0348 236.367 93.6024 237.41 92.8984 238.26C92.7991 238.376 92.6938 238.488 92.5829 238.594Z" fill="#BFBFBF" stroke="#263238" stroke-width="0.87381" stroke-miterlimit="10"/>
<path d="M90.1621 232.971C90.7721 233.24 91.3535 233.571 91.8975 233.958L90.1621 232.971Z" fill="#BFBFBF"/>
<path d="M90.1621 232.971C90.7721 233.24 91.3535 233.571 91.8975 233.958" stroke="#263238" stroke-width="0.87381" stroke-miterlimit="10"/>
<path d="M80.8817 233.958C81.9631 233.212 83.1806 232.69 84.4637 232.422C85.7467 232.154 87.0698 232.145 88.3563 232.396" fill="#BFBFBF"/>
<path d="M80.8817 233.958C81.9631 233.212 83.1806 232.69 84.4637 232.422C85.7467 232.154 87.0698 232.145 88.3563 232.396" stroke="#263238" stroke-width="0.87381" stroke-miterlimit="10"/>
<path d="M75.991 172.461L80.343 222.702H91.5984C91.5984 222.702 92.7136 192.014 93.4262 172.089C93.4688 170.904 93.2731 169.723 92.851 168.616C92.4289 167.509 91.7891 166.5 90.97 165.649C90.1509 164.798 89.1694 164.122 88.0845 163.663C86.9997 163.203 85.8338 162.969 84.6569 162.975C83.4546 162.977 82.2655 163.229 81.1648 163.716C80.064 164.203 79.0753 164.915 78.2611 165.806C77.4469 166.697 76.8249 167.749 76.4342 168.894C76.0435 170.04 75.8926 171.254 75.991 172.461Z" fill="#263238"/>
<path d="M88.2474 163.732C87.1175 163.225 85.8935 162.968 84.6569 162.975C83.4546 162.977 82.2656 163.229 81.1648 163.716C80.064 164.203 79.0753 164.915 78.2611 165.806C77.4469 166.697 76.8249 167.749 76.4342 168.894C76.0435 170.04 75.8926 171.254 75.991 172.461L77.623 191.044" stroke="white" stroke-width="0.87381" stroke-linecap="round" stroke-linejoin="round"/>
<path d="M91.8761 166.756C91.4332 166.116 90.9082 165.538 90.3148 165.036" stroke="white" stroke-width="0.87381" stroke-linecap="round" stroke-linejoin="round"/>
<path d="M93.133 191.044C93.356 184.824 93.2309 177.547 93.4268 172.088C93.4708 170.889 93.2709 169.694 92.8392 168.576" stroke="white" stroke-width="0.87381" stroke-linecap="round" stroke-linejoin="round"/>
<path d="M226.44 86.951V63.5679C226.44 62.4371 225.994 61.3527 225.201 60.5532C224.407 59.7536 223.33 59.3044 222.208 59.3044H185.793C184.67 59.3044 183.594 59.7536 182.8 60.5532C182.006 61.3527 181.56 62.4371 181.56 63.5679V86.951C181.56 88.0818 182.006 89.1662 182.8 89.9657C183.594 90.7653 184.67 91.2145 185.793 91.2145H198.473L197.472 100.114H204V108.504L211.747 94.8039H205.393L206.062 91.209H222.208C223.329 91.209 224.405 90.7606 225.199 89.9622C225.992 89.1638 226.439 88.0808 226.44 86.951Z" fill="white" stroke="#263238" stroke-width="1.02547" stroke-linecap="round" stroke-linejoin="round"/>
<path d="M188.513 67.3053H213.134" stroke="#263238" stroke-width="1.02547" stroke-linecap="round" stroke-linejoin="round"/>
<path d="M188.513 73.9307H219.488" stroke="#263238" stroke-width="1.02547" stroke-linecap="round" stroke-linejoin="round"/>
<path d="M188.513 80.5559H214.723" stroke="#263238" stroke-width="1.02547" stroke-linecap="round" stroke-linejoin="round"/>
<path d="M254.255 187.076L276.254 194.463L270.798 199.965L280.982 210.224L258.982 202.837L264.439 197.335L254.255 187.076Z" fill="#E8E8E8" stroke="#263238" stroke-width="1.02547" stroke-linecap="round" stroke-linejoin="round"/>
<path d="M153.745 187.076L131.746 194.463L137.202 199.965L127.019 210.224L149.018 202.837L143.562 197.335L153.745 187.076Z" fill="#E8E8E8" stroke="#263238" stroke-width="1.02547" stroke-linecap="round" stroke-linejoin="round"/>
<path d="M203.385 17.6127L193.011 38.5134H200.736V53.0244L211.105 32.1237H203.385V17.6127Z" fill="#E8E8E8" stroke="#263238" stroke-width="1.02547" stroke-linecap="round" stroke-linejoin="round"/>
</svg>
